<?xml version="1.0" encoding="UTF-8"?>
<!DOCTYPE svg PUBLIC "-//W3C//DTD SVG 1.1//EN" "http://www.w3.org/Graphics/SVG/1.1/DTD/svg11.dtd">
<!-- Creator: CorelDRAW 2018 -->
<svg xmlns="http://www.w3.org/2000/svg" xml:space="preserve" width="210mm" height="297mm" version="1.1" style="shape-rendering:geometricPrecision; text-rendering:geometricPrecision; image-rendering:optimizeQuality; fill-rule:evenodd; clip-rule:evenodd"
viewBox="0 0 21000 29700"
 xmlns:xlink="http://www.w3.org/1999/xlink">
 <defs>
  <style type="text/css">
   <![CDATA[
    .fil0 {fill:#373435;fill-rule:nonzero}
   ]]>
  </style>
 </defs>
 <g id="Capa_x0020_1">
  <metadata id="CorelCorpID_0Corel-Layer"/>
  <g id="_715946648">
   <path class="fil0" d="M2223.7 20290.34c-0.27,-3.62 -0.6,-7.19 -0.93,-10.76 -27.85,-235.02 -183.02,-434.33 -399.83,-536.66 -99.85,-47.16 -212.83,-73.69 -332.41,-73.69 -12.37,0 -24.63,0.27 -36.84,0.86 -12.92,0.6 -25.73,1.46 -38.48,2.71l-0.16 0c-83.72,14.42 -158.17,82.5 -158.17,164.29 0,79.86 70.96,146.63 152.28,163.17 11.23,0.48 22.24,1.78 32.97,3.83 102.58,19.51 179.92,106.87 179.92,211.74 0,119.13 -99.96,215.73 -223.24,215.73 -123.29,0 -223.25,-96.6 -223.25,-215.73 0,-14.21 1.42,-28.09 4.15,-41.49 2.67,-13.46 6.7,-26.48 11.88,-38.9 2.29,-11.89 3.48,-24.21 3.48,-36.8 0,-103.89 -81.53,-188.07 -182.14,-188.07 -50.04,0 -95.33,20.86 -128.3,54.52 0,0.05 -0.06,0.1 -0.11,0.16 -3,4.05 -5.94,8.1 -8.83,12.15 -10.3,14.54 -20.06,29.45 -29.21,44.74 -13.36,22.37 -25.45,45.49 -36.08,69.32 -18.59,45.33 -34.99,99.79 -48.67,163.54 0,0.11 -0.06,0.16 -0.06,0.27 -37.6,175.43 -54.56,421.69 -37.44,745.05 17.28,324.76 29.59,694.8 269.3,696.31 221.87,1.4 224,-259.17 222.86,-595.87 -0.05,-7.98 -0.09,-16.02 -0.13,-24.1 -0.03,-5.56 0.34,-11.13 1.11,-16.64 0.54,-3.89 1.2,-7.84 2.01,-11.83 0,-0.06 0,-0.06 0,-0.11 0.22,-1.14 0.49,-2.16 0.77,-3.3 0,-0.05 2.22,-9.64 2.22,-9.69 3.11,-14.86 5.68,-20.45 12.22,-35.48 2.34,-5.34 5.12,-10.59 7.74,-15.93 30.6,-62.46 84,-112.68 156.56,-119.47 45.52,-4.25 99.27,-1.36 154.72,37.33 5.36,3.74 23.02,13.36 28.75,19 4.24,4.16 23.38,15.23 28.45,18.36 53.71,33.22 96.84,39.32 176.26,33.4 21.05,-1.57 40.93,-7.56 59.57,-13.99 27.67,-9.58 52.37,-22.79 72.97,-38.61 4.54,-3.49 9.15,-6.9 13.95,-10.02 187.8,-122.12 289.81,-314.37 293.57,-543.17 -0.11,-24.47 -1.25,-49.86 -3.43,-76.17z"/>
  </g>
  <path class="fil0" d="M563.26 22396.28c261.5,-101.25 118.86,-372.96 439.21,-368.47 283.3,3.97 106.84,330.74 469.87,299.54 350.86,-30.16 58.68,-483.19 430.18,-490.63 303.65,-6.08 132.36,355.09 475.2,409.44 625.02,99.09 455.73,-1497.46 243.18,-1615.4 -159.43,-88.47 -310.57,-10.72 -366.9,87.63 -120.54,210.46 -366.99,536.71 -694.55,327.07 -85.52,-54.73 -270.78,-74.78 -274.88,158.07 -1.07,60.39 5.47,121.45 8.21,210.37 11.01,356.6 -197.49,411.93 -256.04,424.83 -57.22,12.61 -312.16,-10 -357.36,-382.75 -39.6,-326.65 -52.73,-463.84 -128.02,-508.3 -16.08,-9.5 -314.83,-108.73 -359.41,197.48 -29.36,201.68 -81.24,816.07 40.72,1096.76 18.06,41.57 45.15,78.76 80.52,107.37 52.97,42.85 141.58,88.99 250.07,46.99z"/>
 </g>
</svg>
